<?xml version="1.0" encoding="UTF-8"?>
<svg xmlns="http://www.w3.org/2000/svg" viewBox="0 0 512 512" width="512" height="512">
  <!-- Open Book (Background) -->
  <polygon points="256,340 256,420 180,405 185,355" fill="#C8C3AA"/>
  <polygon points="256,340 256,420 332,405 327,355" fill="#D2CDB4"/>
  <line x1="256" y1="340" x2="256" y2="420" stroke="#B2AC88" stroke-width="3"/>
  
  <!-- Circuit Lines - Left Page -->
  <line x1="271" y1="365" x2="306" y2="365" stroke="#A09A82" stroke-width="2"/>
  <line x1="271" y1="375" x2="296" y2="375" stroke="#A09A82" stroke-width="2"/>
  <line x1="271" y1="385" x2="311" y2="385" stroke="#A09A82" stroke-width="2"/>
  <circle cx="311" cy="385" r="3" fill="#B2AC88"/>
  
  <!-- Circuit Lines - Right Page -->
  <line x1="241" y1="365" x2="206" y2="365" stroke="#A09A82" stroke-width="2"/>
  <line x1="241" y1="375" x2="216" y2="375" stroke="#A09A82" stroke-width="2"/>
  <line x1="241" y1="385" x2="201" y2="385" stroke="#A09A82" stroke-width="2"/>
  <circle cx="201" cy="385" r="3" fill="#B2AC88"/>
  
  <!-- Robot Head -->
  <rect x="116" y="156" width="280" height="260" rx="42" ry="42" fill="#FFFFFF"/>
  
  <!-- Robot Face Highlight (Subtle Neumorphism) -->
  <rect x="121" y="161" width="270" height="250" rx="38" ry="38" fill="none" stroke="#E6E6E6" stroke-width="3"/>
  
  <!-- Eyes -->
  <circle cx="196" cy="256" r="34" fill="#B2AC88"/>
  <circle cx="316" cy="256" r="34" fill="#B2AC88"/>
  <circle cx="204" cy="248" r="8" fill="#FFFFFF" opacity="0.8"/>
  <circle cx="324" cy="248" r="8" fill="#FFFFFF" opacity="0.8"/>
  
  <!-- Smile -->
  <path d="M 196 330 Q 256 370 316 330" stroke="#2D2D2D" stroke-width="4" fill="none" stroke-linecap="round"/>
  
  <!-- Antenna Base -->
  <ellipse cx="256" cy="156" rx="12" ry="12" fill="#B2AC88"/>
  <rect x="253" y="100" width="6" height="56" fill="#B2AC88"/>
  
  <!-- Antenna Ball -->
  <circle cx="256" cy="88" r="12" fill="#FFD700"/>
  <circle cx="256" cy="88" r="4" fill="#D4BE00"/>
  
  <!-- Graduation Cap (Mortarboard) -->
  <polygon points="256,26 386,66 256,106 126,66" fill="#B2AC88"/>
  <polygon points="256,36 376,71 256,101 136,71" fill="#969174"/>
  
  <!-- Tassel -->
  <line x1="341" y1="71" x2="341" y2="116" stroke="#FFD700" stroke-width="4"/>
  <circle cx="341" cy="120" r="8" fill="#FFD700"/>
  <circle cx="341" cy="120" r="3" fill="#D4BE00"/>
  
  <!-- Glow Effect (Subtle) -->
  <circle cx="256" cy="286" r="130" fill="none" stroke="#B2AC88" stroke-width="1" opacity="0.15"/>
  <circle cx="256" cy="286" r="140" fill="none" stroke="#B2AC88" stroke-width="1" opacity="0.1"/>
  <circle cx="256" cy="286" r="150" fill="none" stroke="#B2AC88" stroke-width="1" opacity="0.05"/>
</svg>